<mxfile host="Electron" agent="Mozilla/5.0 (Windows NT 10.0; Win64; x64) AppleWebKit/537.36 (KHTML, like Gecko) draw.io/28.0.4 Chrome/138.0.7204.97 Electron/37.2.1 Safari/537.36" version="28.0.4">
  <diagram name="Page-1" id="hZG6QD1dRdwKpIX3QE4k">
    <mxGraphModel dx="719" dy="498" grid="0" gridSize="10" guides="1" tooltips="1" connect="1" arrows="1" fold="1" page="1" pageScale="1" pageWidth="696" pageHeight="838" math="0" shadow="0">
      <root>
        <mxCell id="0" />
        <mxCell id="1" parent="0" />
        <mxCell id="Df5I1qxaCYOTuAU6kviX-1" value="" style="image;html=1;image=img/lib/clip_art/computers/Laptop_128x128.png" parent="1" vertex="1">
          <mxGeometry x="211" y="170" width="80" height="100" as="geometry" />
        </mxCell>
        <mxCell id="Df5I1qxaCYOTuAU6kviX-2" value="" style="verticalLabelPosition=bottom;verticalAlign=top;html=1;shadow=0;dashed=0;strokeWidth=1;shape=mxgraph.ios.iPhone;bgStyle=bgGreen;fillColor=#aaaaaa;sketch=0;" parent="1" vertex="1">
          <mxGeometry x="191" y="280" width="40" height="60" as="geometry" />
        </mxCell>
        <mxCell id="Df5I1qxaCYOTuAU6kviX-3" value="" style="sketch=0;pointerEvents=1;shadow=0;dashed=0;html=1;strokeColor=none;fillColor=#505050;labelPosition=center;verticalLabelPosition=bottom;verticalAlign=top;outlineConnect=0;align=center;shape=mxgraph.office.devices.workstation_pc;" parent="1" vertex="1">
          <mxGeometry x="221" y="370" width="70" height="80" as="geometry" />
        </mxCell>
        <mxCell id="Df5I1qxaCYOTuAU6kviX-4" value="" style="image;html=1;image=img/lib/clip_art/computers/Server_Tower_128x128.png" parent="1" vertex="1">
          <mxGeometry x="521" y="270" width="80" height="80" as="geometry" />
        </mxCell>
        <mxCell id="Df5I1qxaCYOTuAU6kviX-5" value="" style="image;aspect=fixed;perimeter=ellipsePerimeter;html=1;align=center;shadow=0;dashed=0;spacingTop=3;image=img/lib/active_directory/internet_globe.svg;" parent="1" vertex="1">
          <mxGeometry x="351" y="267.5" width="85" height="85" as="geometry" />
        </mxCell>
        <mxCell id="Df5I1qxaCYOTuAU6kviX-6" value="" style="endArrow=none;html=1;rounded=0;" parent="1" target="Df5I1qxaCYOTuAU6kviX-4" edge="1">
          <mxGeometry width="50" height="50" relative="1" as="geometry">
            <mxPoint x="431" y="310" as="sourcePoint" />
            <mxPoint x="471" y="340" as="targetPoint" />
            <Array as="points">
              <mxPoint x="501" y="310" />
            </Array>
          </mxGeometry>
        </mxCell>
        <mxCell id="Df5I1qxaCYOTuAU6kviX-7" value="" style="endArrow=none;html=1;rounded=0;exitX=0;exitY=0.25;exitDx=0;exitDy=0;" parent="1" source="Df5I1qxaCYOTuAU6kviX-5" edge="1">
          <mxGeometry width="50" height="50" relative="1" as="geometry">
            <mxPoint x="221" y="290" as="sourcePoint" />
            <mxPoint x="271" y="240" as="targetPoint" />
          </mxGeometry>
        </mxCell>
        <mxCell id="Df5I1qxaCYOTuAU6kviX-8" value="" style="endArrow=none;html=1;rounded=0;" parent="1" edge="1">
          <mxGeometry width="50" height="50" relative="1" as="geometry">
            <mxPoint x="231" y="317.5" as="sourcePoint" />
            <mxPoint x="351" y="318" as="targetPoint" />
          </mxGeometry>
        </mxCell>
        <mxCell id="Df5I1qxaCYOTuAU6kviX-9" value="" style="endArrow=none;html=1;rounded=0;entryX=0;entryY=1;entryDx=0;entryDy=0;" parent="1" target="Df5I1qxaCYOTuAU6kviX-5" edge="1">
          <mxGeometry width="50" height="50" relative="1" as="geometry">
            <mxPoint x="291" y="410" as="sourcePoint" />
            <mxPoint x="341" y="360" as="targetPoint" />
          </mxGeometry>
        </mxCell>
        <mxCell id="Df5I1qxaCYOTuAU6kviX-10" value="Internet" style="text;html=1;align=center;verticalAlign=middle;resizable=0;points=[];autosize=1;strokeColor=none;fillColor=none;fontStyle=1;fontSize=15;" parent="1" vertex="1">
          <mxGeometry x="358.5" y="240" width="70" height="30" as="geometry" />
        </mxCell>
        <mxCell id="Df5I1qxaCYOTuAU6kviX-11" value="Server" style="text;html=1;align=center;verticalAlign=middle;resizable=0;points=[];autosize=1;strokeColor=none;fillColor=none;fontStyle=1;fontSize=15;" parent="1" vertex="1">
          <mxGeometry x="521" y="240" width="70" height="30" as="geometry" />
        </mxCell>
        <mxCell id="Df5I1qxaCYOTuAU6kviX-12" value="Clients" style="text;html=1;align=center;verticalAlign=bottom;resizable=0;points=[];autosize=1;strokeColor=none;fillColor=none;fontSize=15;fontStyle=1;labelPosition=center;verticalLabelPosition=top;spacingLeft=0;" parent="1" vertex="1">
          <mxGeometry x="95" y="322.5" width="70" height="30" as="geometry" />
        </mxCell>
        <mxCell id="Df5I1qxaCYOTuAU6kviX-13" value="" style="endArrow=none;dashed=1;html=1;dashPattern=1 3;strokeWidth=2;rounded=0;" parent="1" edge="1">
          <mxGeometry width="50" height="50" relative="1" as="geometry">
            <mxPoint x="216" y="403" as="sourcePoint" />
            <mxPoint x="211" y="215" as="targetPoint" />
            <Array as="points">
              <mxPoint x="161" y="361" />
              <mxPoint x="161" y="255" />
            </Array>
          </mxGeometry>
        </mxCell>
        <mxCell id="Df5I1qxaCYOTuAU6kviX-14" value="Request" style="text;html=1;align=center;verticalAlign=middle;resizable=0;points=[];autosize=1;strokeColor=none;fillColor=none;flipH=1;rotation=30;fontStyle=0;fontSize=14;" parent="1" vertex="1">
          <mxGeometry x="256" y="260" width="80" height="30" as="geometry" />
        </mxCell>
        <mxCell id="Df5I1qxaCYOTuAU6kviX-15" value="Response&amp;nbsp;" style="text;html=1;align=center;verticalAlign=middle;resizable=0;points=[];autosize=1;strokeColor=none;fillColor=none;fontSize=14;" parent="1" vertex="1">
          <mxGeometry x="436" y="280" width="90" height="30" as="geometry" />
        </mxCell>
        <mxCell id="Df5I1qxaCYOTuAU6kviX-16" value="Request" style="text;html=1;align=center;verticalAlign=middle;resizable=0;points=[];autosize=1;strokeColor=none;fillColor=none;flipH=1;rotation=0;fontStyle=0;fontSize=14;" parent="1" vertex="1">
          <mxGeometry x="231.0010161513776" y="320.0003810567666" width="80" height="30" as="geometry" />
        </mxCell>
        <mxCell id="Df5I1qxaCYOTuAU6kviX-17" value="Request" style="text;html=1;align=center;verticalAlign=middle;resizable=0;points=[];autosize=1;strokeColor=none;fillColor=none;flipH=1;rotation=-45;fontStyle=0;fontSize=14;" parent="1" vertex="1">
          <mxGeometry x="281" y="380" width="80" height="30" as="geometry" />
        </mxCell>
        <mxCell id="u7rE2liVrNd60J_INSOH-3" value="" style="endArrow=none;dashed=1;html=1;dashPattern=1 3;strokeWidth=2;rounded=0;" edge="1" parent="1">
          <mxGeometry width="50" height="50" relative="1" as="geometry">
            <mxPoint x="160" y="313" as="sourcePoint" />
            <mxPoint x="191" y="312.5" as="targetPoint" />
          </mxGeometry>
        </mxCell>
      </root>
    </mxGraphModel>
  </diagram>
</mxfile>
